# xmcd
#
# Track frame offsets:
#	150
#	12882
#	29315
#	40843
#	50585
#	66016
#	79116
#	88669
#	104187
#	117398
#	131626
#	143778
#	158541
#	175126
#	188650
#	201132
#	211316
#	224363
#	236635
#	250317
#
# Disc length: 3504 seconds
#
# Revision: 1
# Processed by: cddbd v1.5.2PL0 Copyright (c) Steve Scherf et al.
# Submitted via: audiograbber 1.83.01
#
DISCID=1d0dae14
DTITLE=Philomena Begley - Village In County Tyrone [CD2)
DYEAR=1900
DGENRE=
TTITLE0=A Village In County Tyrone
TTITLE1=A Pal Like Mother
TTITLE2=Walkin', Talkin', Cryin', Bearly Beatin', Broken Heart
TTITLE3=Crying Steel Guitar
TTITLE4=One Is One Too Many
TTITLE5=I'm Crying My Heart Out Over You
TTITLE6=Some Ol' Rainy Morning
TTITLE7=My Mother's Home
TTITLE8=County Tyrone
TTITLE9=The Bed You Made For Me
TTITLE10=Honky-Tonkitis
TTITLE11=Cottage On The Hill
TTITLE12=Can I Sleep In Your Arms
TTITLE13=Light In The Window
TTITLE14=Route 65 To Nashville
TTITLE15=You Can't Make Love By Yourself
TTITLE16=You Are The One I Can't Live Without
TTITLE17=Still Feeling Blue
TTITLE18=A Song I Can Sing
TTITLE19=In God We Trust
EXTD=
EXTT0=
EXTT1=
EXTT2=
EXTT3=
EXTT4=
EXTT5=
EXTT6=
EXTT7=
EXTT8=
EXTT9=
EXTT10=
EXTT11=
EXTT12=
EXTT13=
EXTT14=
EXTT15=
EXTT16=
EXTT17=
EXTT18=
EXTT19=
PLAYORDER=
